<svg width="8" height="8" viewBox="0 0 8 8" fill="none" xmlns="http://www.w3.org/2000/svg">
<path d="M5.86519 1.06464C6.15808 0.771747 6.63295 0.771747 6.92585 1.06464C7.19211 1.33091 7.21632 1.74757 6.99846 2.04118L6.92585 2.1253L2.13385 6.9173C1.84095 7.21019 1.36608 7.21019 1.07319 6.9173C0.806919 6.65103 0.782713 6.23437 1.00057 5.94076L1.07319 5.85664L5.86519 1.06464Z" fill="#fff"/>
<path d="M1.07068 1.06251C1.33697 0.796271 1.75364 0.772109 2.04723 0.989994L2.13134 1.06262L6.92734 5.85962C7.2202 6.15254 7.22015 6.62742 6.92723 6.92028C6.66093 7.18652 6.24427 7.21068 5.95068 6.9928L5.86657 6.92017L1.07057 2.12317C0.777704 1.83025 0.777754 1.35537 1.07068 1.06251Z" fill="#fff"/>
</svg>
