<svg width="55" height="50" viewBox="0 0 55 50" fill="none" xmlns="http://www.w3.org/2000/svg">
<g clip-path="url(#clip0)">
<path d="M31.2659 37.5H22.8157C21.4108 37.5 20.2806 36.4551 20.2806 35.1562V18.75H11.017C9.13684 18.75 8.19675 16.6504 9.52766 15.4199L25.5937 0.556625C26.3859 -0.175797 27.6852 -0.175797 28.4774 0.556625L44.554 15.4199C45.8849 16.6504 44.9448 18.75 43.0646 18.75H33.801V35.1562C33.801 36.4551 32.6708 37.5 31.2659 37.5ZM54.0816 36.7187V47.6562C54.0816 48.9551 52.9514 50 51.5466 50H2.53508C1.13022 50 0 48.9551 0 47.6562V36.7187C0 35.4199 1.13022 34.375 2.53508 34.375H16.9005V35.1562C16.9005 38.1738 19.5518 40.625 22.8157 40.625H31.2659C34.5299 40.625 37.1811 38.1738 37.1811 35.1562V34.375H51.5466C52.9514 34.375 54.0816 35.4199 54.0816 36.7187ZM40.9837 45.3125C40.9837 44.2383 40.0331 43.3594 38.8712 43.3594C37.7093 43.3594 36.7586 44.2383 36.7586 45.3125C36.7586 46.3867 37.7093 47.2656 38.8712 47.2656C40.0331 47.2656 40.9837 46.3867 40.9837 45.3125ZM47.7439 45.3125C47.7439 44.2383 46.7933 43.3594 45.6314 43.3594C44.4695 43.3594 43.5188 44.2383 43.5188 45.3125C43.5188 46.3867 44.4695 47.2656 45.6314 47.2656C46.7933 47.2656 47.7439 46.3867 47.7439 45.3125Z" fill="#C5C7CD"/>
</g>
<defs>
<clipPath id="clip0">
<rect width="54.0816" height="50" fill="white"/>
</clipPath>
</defs>
</svg>
